<?xml version="1.0" encoding="utf-8"?>
<!-- Generator: Adobe Illustrator 28.1.0, SVG Export Plug-In . SVG Version: 6.00 Build 0)  -->
<svg version="1.1" id="Layer_1" xmlns="http://www.w3.org/2000/svg" xmlns:xlink="http://www.w3.org/1999/xlink" x="0px" y="0px"
	 viewBox="0 0 126 58" style="enable-background:new 0 0 126 58;" xml:space="preserve">
<style type="text/css">
	.st0{fill:#FFFFFF;}
	.st1{clip-path:url(#SVGID_00000148634932207384284370000011434394962939194012_);fill:#317EFE;}
	.st2{clip-path:url(#SVGID_00000148634932207384284370000011434394962939194012_);fill:none;}
</style>
<g>
	<g>
		<path class="st0" d="M52.7,41.5V16.8h10.1c4.7,0,7.5,2.8,7.5,6.2c0,3.5-2.4,5-3.6,5.4v0.2c1.7,0.5,4.5,2,4.5,5.9
			c0,3.5-2.3,7-8.2,7H52.7z M56.6,20.2v7.1h5.9c2.9,0,4.1-1.7,4.1-3.6c0-1.8-1.2-3.6-4.1-3.6H56.6z M56.6,30.4v7.8h6.2
			c3.3,0,4.6-1.9,4.6-3.9c0-2-1.3-3.9-4.6-3.9H56.6z"/>
		<path class="st0" d="M75.6,41.5l0-25.4h3.8v25.4H75.6z"/>
		<path class="st0" d="M97.3,26.5h0.2v-2.6h3.8v17.7h-3.8v-2.6h-0.2c-0.6,1-2.2,3-5.5,3c-5.3,0-7.9-4.6-7.9-9.2
			c0-4.5,2.6-9.2,7.9-9.2C95.1,23.5,96.6,25.5,97.3,26.5z M87.6,32.7c0,3,1.6,6,4.9,6c3.3,0,4.9-3,4.9-6c0-3-1.6-6-4.9-6
			C89.3,26.7,87.6,29.7,87.6,32.7z"/>
		<path class="st0" d="M110.1,38.9h-0.2v2.6h-3.8V16.2h3.8v10.3h0.2c0.6-1,2.2-3,5.6-3c5.3,0,7.9,4.6,7.9,9.2c0,4.5-2.6,9.2-7.9,9.2
			C112.3,41.8,110.7,39.9,110.1,38.9z M119.7,32.7c0-3-1.6-6-4.9-6c-3.3,0-4.9,3-4.9,6c0,3,1.6,6,4.9,6
			C118.1,38.7,119.7,35.7,119.7,32.7z"/>
	</g>
	<g>
		<defs>
			<path id="SVGID_1_" d="M8.9,13.2c-0.9,0-1.6,0.7-1.6,1.6s0.7,1.6,1.6,1.6s1.6-0.7,1.6-1.6S9.7,13.2,8.9,13.2z M29.5,29l-4.8,8.4
				h-4.3h-5c-0.6-0.8-1.5-1.3-2.5-1.3c-1,0-1.9,0.5-2.5,1.3h0v0.1C10,38,9.8,38.6,9.8,39.2c0,0.7,0.2,1.3,0.6,1.8v0.1h0
				c0.6,0.8,1.5,1.3,2.5,1.3c1,0,1.9-0.5,2.5-1.3h11.4l0.5-0.9L33.7,29l-6.9-12.1h-15c-0.7,0.9-1.7,1.5-2.9,1.5
				c-2,0-3.6-1.6-3.6-3.6c0-2,1.6-3.6,3.6-3.6c1.2,0,2.3,0.6,2.9,1.5h17.5l4.7,8.2l4.7,8.2l-4.7,8.2v0l-4.7,8.2H6.1V30.8h11.3
				c0.6,0.8,1.5,1.3,2.5,1.3c1.7,0,3.1-1.4,3.1-3.1s-1.4-3.1-3.1-3.1c-1,0-1.9,0.5-2.5,1.3H6.1H4.9c-1.3,0-2.4,1.1-2.4,2.5v1.3v15.7
				c0,1.3,1.1,2.4,2.4,2.4h25.1c0.9,0,1.7-0.4,2.1-1.2l5-8.8l5-8.8c0.4-0.8,0.4-1.7,0-2.4L32,10.2C31.6,9.4,30.8,9,29.9,9H4.9
				c-1.3,0-2.4,1.1-2.4,2.4v6.7c0,1.3,1.1,2.4,2.4,2.4h1.2H14h6.4h4.3L29.5,29z"/>
		</defs>
		<clipPath id="SVGID_00000153700112858352913650000016408038020784537259_">
			<use xlink:href="#SVGID_1_"  style="overflow:visible;"/>
		</clipPath>
		<path style="clip-path:url(#SVGID_00000153700112858352913650000016408038020784537259_);fill:#317EFE;" d="M45.1,2.4h-50v49.9h50
			V2.4z"/>
		
			<rect x="2.5" y="9" style="clip-path:url(#SVGID_00000153700112858352913650000016408038020784537259_);fill:none;" width="40" height="40"/>
	</g>
</g>
</svg>
