<?xml version="1.0" encoding="utf-8"?>
<!-- Generator: Adobe Illustrator 28.1.0, SVG Export Plug-In . SVG Version: 6.00 Build 0)  -->
<svg version="1.1" id="Layer_1" xmlns="http://www.w3.org/2000/svg" xmlns:xlink="http://www.w3.org/1999/xlink" x="0px" y="0px"
	 viewBox="0 0 126 58" style="enable-background:new 0 0 126 58;" xml:space="preserve">
<style type="text/css">
	.st0{clip-path:url(#SVGID_00000006704795062484967510000005890072340320797592_);}
	.st1{fill:#FFFFFF;filter:url(#Adobe_OpacityMaskFilter);}
	.st2{mask:url(#mask0_4199_2_00000134216706920888319540000005564989978120846473_);}
	.st3{fill:#00160A;}
</style>
<g>
	<g>
		<defs>
			<rect id="SVGID_1_" x="2" y="9" width="40" height="40"/>
		</defs>
		<clipPath id="SVGID_00000174571704121519674070000016373519321269765507_">
			<use xlink:href="#SVGID_1_"  style="overflow:visible;"/>
		</clipPath>
		<g style="clip-path:url(#SVGID_00000174571704121519674070000016373519321269765507_);">
			<defs>
				<filter id="Adobe_OpacityMaskFilter" filterUnits="userSpaceOnUse" x="2" y="9" width="40.1" height="40">
					<feColorMatrix  type="matrix" values="1 0 0 0 0  0 1 0 0 0  0 0 1 0 0  0 0 0 1 0"/>
				</filter>
			</defs>
			
				<mask maskUnits="userSpaceOnUse" x="2" y="9" width="40.1" height="40" id="mask0_4199_2_00000134216706920888319540000005564989978120846473_">
				<path class="st1" d="M8.4,13.2c-0.9,0-1.6,0.7-1.6,1.6s0.7,1.6,1.6,1.6s1.6-0.7,1.6-1.6S9.3,13.2,8.4,13.2z M29.1,29l-4.8,8.4
					h-4.3h-5c-0.6-0.8-1.5-1.3-2.5-1.3c-1,0-1.9,0.5-2.5,1.3h0v0.1c-0.4,0.5-0.6,1.1-0.6,1.8c0,0.7,0.2,1.3,0.6,1.8v0.1h0
					c0.6,0.8,1.5,1.3,2.5,1.3c1,0,1.9-0.5,2.5-1.3h11.4l0.5-0.9L33.3,29l-6.9-12.1h-15c-0.7,0.9-1.7,1.5-2.9,1.5
					c-2,0-3.6-1.6-3.6-3.6c0-2,1.6-3.6,3.6-3.6c1.2,0,2.3,0.6,2.9,1.5h17.5l4.7,8.2l4.7,8.2l-4.7,8.2v0l-4.7,8.2H5.7V30.8H17
					c0.6,0.8,1.5,1.3,2.5,1.3c1.7,0,3.1-1.4,3.1-3.1s-1.4-3.1-3.1-3.1c-1,0-1.9,0.5-2.5,1.3H5.7H4.4c-1.3,0-2.4,1.1-2.4,2.5v1.3
					v15.7C2,47.9,3.1,49,4.4,49h25.1c0.9,0,1.7-0.4,2.1-1.2l5-8.8l5-8.8c0.4-0.8,0.4-1.7,0-2.4L31.6,10.2C31.1,9.4,30.4,9,29.5,9
					H4.4C3.1,9,2,10.1,2,11.4v6.7c0,1.3,1.1,2.4,2.4,2.4h1.2h7.9H20h4.3L29.1,29z"/>
			</mask>
			<g class="st2">
				<path class="st3" d="M42.1,9H2v40h40.1V9z"/>
			</g>
		</g>
	</g>
	<g>
		<path d="M46.6,42.7v-27h11.1c5.2,0,8.2,3.1,8.2,6.7c0,3.9-2.6,5.5-3.9,5.9v0.2c1.8,0.5,5,2.2,5,6.5c0,3.8-2.6,7.6-9,7.6H46.6z
			 M50.9,19.3v7.8h6.4c3.1,0,4.5-1.9,4.5-3.9c0-2-1.3-3.9-4.5-3.9H50.9z M50.9,30.5V39h6.7c3.6,0,5.1-2.1,5.1-4.3
			c0-2.2-1.5-4.3-5.1-4.3H50.9z"/>
		<path d="M71.6,42.7l0-27.7h4.1v27.7H71.6z"/>
		<path d="M95.3,26.2h0.2v-2.9h4.2v19.3h-4.2v-2.9h-0.2c-0.7,1.1-2.4,3.2-6.1,3.2c-5.8,0-8.7-5.1-8.7-10c0-5,2.8-10,8.7-10
			C92.9,23,94.6,25.1,95.3,26.2z M84.7,33c0,3.3,1.8,6.6,5.4,6.6c3.6,0,5.4-3.3,5.4-6.6c0-3.3-1.8-6.6-5.4-6.6
			C86.5,26.4,84.7,29.7,84.7,33z"/>
		<path d="M109.3,39.8H109v2.9h-4.2V15h4.2v11.3h0.2c0.7-1.1,2.4-3.2,6.1-3.2c5.8,0,8.6,5.1,8.6,10c0,5-2.8,10-8.6,10
			C111.7,43,110,40.9,109.3,39.8z M119.8,33c0-3.3-1.8-6.6-5.4-6.6c-3.6,0-5.4,3.3-5.4,6.6c0,3.3,1.8,6.6,5.4,6.6
			C118,39.6,119.8,36.3,119.8,33z"/>
	</g>
</g>
</svg>
