<?xml version="1.0" encoding="utf-8"?>
<!-- Generator: Adobe Illustrator 28.1.0, SVG Export Plug-In . SVG Version: 6.00 Build 0)  -->
<svg version="1.1" id="Layer_1" xmlns="http://www.w3.org/2000/svg" xmlns:xlink="http://www.w3.org/1999/xlink" x="0px" y="0px"
	 viewBox="0 0 126 40" style="enable-background:new 0 0 126 40;" xml:space="preserve">
<style type="text/css">
	.st0{clip-path:url(#SVGID_00000102521541857952235540000016293282965128447935_);}
	.st1{fill:#FFFFFF;filter:url(#Adobe_OpacityMaskFilter);}
	.st2{mask:url(#mask0_3628_1265_00000008129774051049013230000017739032270933032629_);}
	.st3{fill:#00D563;}
	.st4{fill:#FFFFFF;}
</style>
<g>
	<defs>
		<rect id="SVGID_1_" x="0.9" width="40" height="40"/>
	</defs>
	<clipPath id="SVGID_00000039094186976478674570000010537662938329099698_">
		<use xlink:href="#SVGID_1_"  style="overflow:visible;"/>
	</clipPath>
	<g style="clip-path:url(#SVGID_00000039094186976478674570000010537662938329099698_);">
		<defs>
			<filter id="Adobe_OpacityMaskFilter" filterUnits="userSpaceOnUse" x="0.9" y="0" width="40.1" height="40">
				<feColorMatrix  type="matrix" values="1 0 0 0 0  0 1 0 0 0  0 0 1 0 0  0 0 0 1 0"/>
			</filter>
		</defs>
		
			<mask maskUnits="userSpaceOnUse" x="0.9" y="0" width="40.1" height="40" id="mask0_3628_1265_00000008129774051049013230000017739032270933032629_">
			<path class="st1" d="M7.3,4.2c-0.9,0-1.6,0.7-1.6,1.6c0,0.9,0.7,1.6,1.6,1.6s1.6-0.7,1.6-1.6C8.9,4.9,8.2,4.2,7.3,4.2z M28,20
				l-4.8,8.4h-4.3h-5c-0.6-0.8-1.5-1.3-2.5-1.3s-1.9,0.5-2.5,1.3h0v0.1c-0.4,0.5-0.6,1.1-0.6,1.8c0,0.7,0.2,1.3,0.6,1.8v0.1h0
				c0.6,0.8,1.5,1.3,2.5,1.3s1.9-0.5,2.5-1.3h11.4l0.5-0.9L32.2,20L25.2,7.9h-15C9.6,8.8,8.5,9.4,7.3,9.4c-2,0-3.6-1.6-3.6-3.6
				c0-2,1.6-3.6,3.6-3.6c1.2,0,2.3,0.6,2.9,1.5h17.5l4.7,8.2L37,20l-4.7,8.2v0l-4.7,8.2H4.6V21.8h11.3c0.6,0.8,1.5,1.3,2.5,1.3
				c1.7,0,3.1-1.4,3.1-3.1s-1.4-3.1-3.1-3.1c-1,0-1.9,0.5-2.5,1.3H4.6H3.3c-1.3,0-2.4,1.1-2.4,2.5v1.3v15.7C0.9,38.9,2,40,3.3,40
				h25.1c0.9,0,1.7-0.4,2.1-1.2l5-8.8l5-8.8c0.4-0.8,0.4-1.7,0-2.4L30.5,1.2C30,0.4,29.3,0,28.4,0H3.3C2,0,0.9,1.1,0.9,2.4v6.7
				c0,1.3,1.1,2.4,2.4,2.4h1.2h7.9h6.4h4.3L28,20z"/>
		</mask>
		<g class="st2">
			<path class="st3" d="M41,0H0.9v40H41V0z"/>
		</g>
	</g>
</g>
<g>
	<path class="st4" d="M49.8,32.5V7.8h10.1c4.7,0,7.5,2.8,7.5,6.2c0,3.5-2.4,5-3.6,5.4v0.2c1.7,0.5,4.5,2,4.5,5.9c0,3.5-2.3,7-8.2,7
		H49.8z M53.7,11.2v7.1h5.9c2.9,0,4.1-1.7,4.1-3.6c0-1.8-1.2-3.6-4.1-3.6H53.7z M53.7,21.4v7.8h6.2c3.3,0,4.6-1.9,4.6-3.9
		c0-2-1.3-3.9-4.6-3.9H53.7z"/>
	<path class="st4" d="M72.7,32.5l0-25.4h3.8v25.4H72.7z"/>
	<path class="st4" d="M94.4,17.5h0.2v-2.6h3.8v17.7h-3.8v-2.6h-0.2c-0.6,1-2.2,3-5.5,3c-5.3,0-7.9-4.6-7.9-9.2
		c0-4.5,2.6-9.2,7.9-9.2C92.2,14.5,93.7,16.5,94.4,17.5z M84.7,23.7c0,3,1.6,6,4.9,6c3.3,0,4.9-3,4.9-6c0-3-1.6-6-4.9-6
		C86.3,17.7,84.7,20.7,84.7,23.7z"/>
	<path class="st4" d="M107.1,29.9h-0.2v2.6h-3.8V7.2h3.8v10.3h0.2c0.6-1,2.2-3,5.6-3c5.3,0,7.9,4.6,7.9,9.2c0,4.5-2.6,9.2-7.9,9.2
		C109.3,32.8,107.8,30.9,107.1,29.9z M116.8,23.7c0-3-1.6-6-4.9-6c-3.3,0-4.9,3-4.9,6c0,3,1.6,6,4.9,6
		C115.1,29.7,116.8,26.7,116.8,23.7z"/>
</g>
</svg>
