<?xml version="1.0" encoding="utf-8"?>
<!-- Generator: Adobe Illustrator 28.1.0, SVG Export Plug-In . SVG Version: 6.00 Build 0)  -->
<svg version="1.1" id="Layer_1" xmlns="http://www.w3.org/2000/svg" xmlns:xlink="http://www.w3.org/1999/xlink" x="0px" y="0px"
	 viewBox="0 0 126 58" style="enable-background:new 0 0 126 58;" xml:space="preserve">
<style type="text/css">
	.st0{clip-path:url(#SVGID_00000030489349909354103570000007418059701562470294_);}
	.st1{fill:#FFFFFF;filter:url(#Adobe_OpacityMaskFilter);}
	.st2{mask:url(#mask0_4212_7784_00000067212645541183919390000015620922551841433228_);}
	.st3{fill:#317EFE;}
</style>
<g>
	<defs>
		<rect id="SVGID_1_" y="9" width="40" height="40"/>
	</defs>
	<clipPath id="SVGID_00000069396342956051977590000013922282924824433056_">
		<use xlink:href="#SVGID_1_"  style="overflow:visible;"/>
	</clipPath>
	<g style="clip-path:url(#SVGID_00000069396342956051977590000013922282924824433056_);">
		<defs>
			<filter id="Adobe_OpacityMaskFilter" filterUnits="userSpaceOnUse" x="0" y="9" width="40.1" height="40">
				<feColorMatrix  type="matrix" values="1 0 0 0 0  0 1 0 0 0  0 0 1 0 0  0 0 0 1 0"/>
			</filter>
		</defs>
		
			<mask maskUnits="userSpaceOnUse" x="0" y="9" width="40.1" height="40" id="mask0_4212_7784_00000067212645541183919390000015620922551841433228_">
			<path class="st1" d="M6.4,13.2c-0.9,0-1.6,0.7-1.6,1.6s0.7,1.6,1.6,1.6S8,15.7,8,14.8S7.3,13.2,6.4,13.2z M27.1,29l-4.8,8.4h-4.3
				h-5c-0.6-0.8-1.5-1.3-2.5-1.3c-1,0-1.9,0.5-2.5,1.3h0v0.1c-0.4,0.5-0.6,1.1-0.6,1.8c0,0.7,0.2,1.3,0.6,1.8v0.1h0
				c0.6,0.8,1.5,1.3,2.5,1.3c1,0,1.9-0.5,2.5-1.3h11.4l0.5-0.9L31.3,29l-6.9-12.1h-15c-0.7,0.9-1.7,1.5-2.9,1.5
				c-2,0-3.6-1.6-3.6-3.6c0-2,1.6-3.6,3.6-3.6c1.2,0,2.3,0.6,2.9,1.5h17.5l4.7,8.2l4.7,8.2l-4.7,8.2v0l-4.7,8.2H3.7V30.8H15
				c0.6,0.8,1.5,1.3,2.5,1.3c1.7,0,3.1-1.4,3.1-3.1s-1.4-3.1-3.1-3.1c-1,0-1.9,0.5-2.5,1.3H3.7H2.4c-1.3,0-2.4,1.1-2.4,2.5v1.3v15.7
				C0,47.9,1.1,49,2.4,49h25.1c0.9,0,1.7-0.4,2.1-1.2l5-8.8l5-8.8c0.4-0.8,0.4-1.7,0-2.4L29.6,10.2C29.1,9.4,28.4,9,27.5,9H2.4
				C1.1,9,0,10.1,0,11.4v6.7c0,1.3,1.1,2.4,2.4,2.4h1.2h7.9H18h4.3L27.1,29z"/>
		</mask>
		<g class="st2">
			<path class="st3" d="M40.1,9H0v40h40.1V9z"/>
		</g>
	</g>
</g>
<g>
	<path d="M51.2,41.5V16.8h10.1c4.7,0,7.5,2.8,7.5,6.2c0,3.5-2.4,5-3.6,5.4v0.2c1.7,0.5,4.5,2,4.5,5.9c0,3.5-2.3,7-8.2,7H51.2z
		 M55.1,20.2v7.1H61c2.9,0,4.1-1.7,4.1-3.6c0-1.8-1.2-3.6-4.1-3.6H55.1z M55.1,30.4v7.8h6.2c3.3,0,4.6-1.9,4.6-3.9
		c0-2-1.3-3.9-4.6-3.9H55.1z"/>
	<path d="M74.1,41.5l0-25.4h3.8v25.4H74.1z"/>
	<path d="M95.7,26.5h0.2v-2.6h3.8v17.7h-3.8v-2.6h-0.2c-0.6,1-2.2,3-5.5,3c-5.3,0-7.9-4.6-7.9-9.2c0-4.5,2.6-9.2,7.9-9.2
		C93.5,23.5,95.1,25.5,95.7,26.5z M86.1,32.7c0,3,1.6,6,4.9,6c3.3,0,4.9-3,4.9-6c0-3-1.6-6-4.9-6C87.7,26.7,86.1,29.7,86.1,32.7z"/>
	<path d="M108.5,38.9h-0.2v2.6h-3.8V16.2h3.8v10.3h0.2c0.6-1,2.2-3,5.6-3c5.3,0,7.9,4.6,7.9,9.2c0,4.5-2.6,9.2-7.9,9.2
		C110.7,41.8,109.2,39.9,108.5,38.9z M118.2,32.7c0-3-1.6-6-4.9-6c-3.3,0-4.9,3-4.9,6c0,3,1.6,6,4.9,6
		C116.5,38.7,118.2,35.7,118.2,32.7z"/>
</g>
</svg>
