<?xml version="1.0" encoding="utf-8"?>
<!-- Generator: Adobe Illustrator 28.1.0, SVG Export Plug-In . SVG Version: 6.00 Build 0)  -->
<svg version="1.1" id="Layer_1" xmlns="http://www.w3.org/2000/svg" xmlns:xlink="http://www.w3.org/1999/xlink" x="0px" y="0px"
	 viewBox="0 0 126 40" style="enable-background:new 0 0 126 40;" xml:space="preserve">
<style type="text/css">
	.st0{clip-path:url(#SVGID_00000158021521471386162150000017594299136826337980_);}
	.st1{fill:#FFFFFF;filter:url(#Adobe_OpacityMaskFilter);}
	.st2{mask:url(#mask0_3628_1265_00000172428852838814840020000005033585979567633561_);}
	.st3{fill:#00D563;}
</style>
<g>
	<g>
		<defs>
			<rect id="SVGID_1_" x="3" width="40" height="40"/>
		</defs>
		<clipPath id="SVGID_00000070085886798194366240000009880158374422125239_">
			<use xlink:href="#SVGID_1_"  style="overflow:visible;"/>
		</clipPath>
		<g style="clip-path:url(#SVGID_00000070085886798194366240000009880158374422125239_);">
			<defs>
				<filter id="Adobe_OpacityMaskFilter" filterUnits="userSpaceOnUse" x="3" y="0" width="40.1" height="40">
					<feColorMatrix  type="matrix" values="1 0 0 0 0  0 1 0 0 0  0 0 1 0 0  0 0 0 1 0"/>
				</filter>
			</defs>
			
				<mask maskUnits="userSpaceOnUse" x="3" y="0" width="40.1" height="40" id="mask0_3628_1265_00000172428852838814840020000005033585979567633561_">
				<path class="st1" d="M9.4,4.2c-0.9,0-1.6,0.7-1.6,1.6c0,0.9,0.7,1.6,1.6,1.6S11,6.7,11,5.8C11,4.9,10.3,4.2,9.4,4.2z M30.1,20
					l-4.8,8.4h-4.3h-5c-0.6-0.8-1.5-1.3-2.5-1.3s-1.9,0.5-2.5,1.3h0v0.1c-0.4,0.5-0.6,1.1-0.6,1.8c0,0.7,0.2,1.3,0.6,1.8v0.1h0
					c0.6,0.8,1.5,1.3,2.5,1.3s1.9-0.5,2.5-1.3h11.4l0.5-0.9L34.3,20L27.3,7.9h-15c-0.7,0.9-1.7,1.5-2.9,1.5c-2,0-3.6-1.6-3.6-3.6
					c0-2,1.6-3.6,3.6-3.6c1.2,0,2.3,0.6,2.9,1.5h17.5l4.7,8.2l4.7,8.2l-4.7,8.2v0l-4.7,8.2H6.7V21.8H18c0.6,0.8,1.5,1.3,2.5,1.3
					c1.7,0,3.1-1.4,3.1-3.1s-1.4-3.1-3.1-3.1c-1,0-1.9,0.5-2.5,1.3H6.7H5.4c-1.3,0-2.4,1.1-2.4,2.5v1.3v15.7C3,38.9,4.1,40,5.4,40
					h25.1c0.9,0,1.7-0.4,2.1-1.2l5-8.8l5-8.8c0.4-0.8,0.4-1.7,0-2.4L32.6,1.2C32.1,0.4,31.4,0,30.5,0H5.4C4.1,0,3,1.1,3,2.4v6.7
					c0,1.3,1.1,2.4,2.4,2.4h1.2h7.9h6.4h4.3L30.1,20z"/>
			</mask>
			<g class="st2">
				<path class="st3" d="M43.1,0H3v40h40.1V0z"/>
			</g>
		</g>
	</g>
	<g>
		<path d="M52.2,32.5V7.8h10.1c4.7,0,7.5,2.8,7.5,6.2c0,3.5-2.4,5-3.6,5.4v0.2c1.7,0.5,4.5,2,4.5,5.9c0,3.5-2.3,7-8.2,7H52.2z
			 M56.1,11.2v7.1H62c2.9,0,4.1-1.7,4.1-3.6c0-1.8-1.2-3.6-4.1-3.6H56.1z M56.1,21.4v7.8h6.2c3.3,0,4.6-1.9,4.6-3.9
			c0-2-1.3-3.9-4.6-3.9H56.1z"/>
		<path d="M75.1,32.5l0-25.4h3.8v25.4H75.1z"/>
		<path d="M96.7,17.5h0.2v-2.6h3.8v17.7h-3.8v-2.6h-0.2c-0.6,1-2.2,3-5.5,3c-5.3,0-7.9-4.6-7.9-9.2c0-4.5,2.6-9.2,7.9-9.2
			C94.5,14.5,96.1,16.5,96.7,17.5z M87.1,23.7c0,3,1.6,6,4.9,6c3.3,0,4.9-3,4.9-6c0-3-1.6-6-4.9-6C88.7,17.7,87.1,20.7,87.1,23.7z"
			/>
		<path d="M109.5,29.9h-0.2v2.6h-3.8V7.2h3.8v10.3h0.2c0.6-1,2.2-3,5.6-3c5.3,0,7.9,4.6,7.9,9.2c0,4.5-2.6,9.2-7.9,9.2
			C111.7,32.8,110.2,30.9,109.5,29.9z M119.2,23.7c0-3-1.6-6-4.9-6c-3.3,0-4.9,3-4.9,6c0,3,1.6,6,4.9,6
			C117.5,29.7,119.2,26.7,119.2,23.7z"/>
	</g>
</g>
</svg>
